<?xml version="1.0" encoding="UTF-8" standalone="no"?>
<!-- Created with Inkscape (http://www.inkscape.org/) -->

<svg
   xmlns:dc="http://purl.org/dc/elements/1.1/"
   xmlns:cc="http://creativecommons.org/ns#"
   xmlns:rdf="http://www.w3.org/1999/02/22-rdf-syntax-ns#"
   xmlns:svg="http://www.w3.org/2000/svg"
   xmlns="http://www.w3.org/2000/svg"
   version="1.1"
   id="square-striped">
  <defs
     id="defs5562" />
  <metadata
     id="metadata5565">
    <rdf:RDF>
      <cc:Work
         rdf:about="">
        <dc:format>image/svg+xml</dc:format>
        <dc:type
           rdf:resource="http://purl.org/dc/dcmitype/StillImage" />
        <dc:title></dc:title>
      </cc:Work>
    </rdf:RDF>
  </metadata>
  <g
     transform="translate(-400,-572.36218)"
     id="layer1">
    <path
       d="m 0,0 0,4.96875 0,2.3125 0,2.3125 0,2.3125 0,2.3125 0,2.3125 0,2.3125 L 0,21.125 0,23.46875 0,25.75 0,28.09375 0,30.375 0,32.6875 0,35 0,37.28125 0,39.625 0,40 l 3.3125,0 4.03125,0 4,0 4.03125,0 3.96875,0 3.96875,0 4.03125,0 3.96875,0 8.6875,0 0,-5 0,-2.3125 0,-2.3125 0,-2.3125 0,-2.28125 0,-2.34375 0,-2.28125 0,-2.34375 0,-2.28125 0,-2.34375 0,-2.28125 0,-2.3125 0,-2.3125 0,-2.3125 0,-2.3125 0,-2.3125 L 40,0 36.59375,0 32.625,0 28.625,0 24.59375,0 20.625,0 16.59375,0 12.625,0 8.59375,0 0,0 z m 4.28125,2.5 4,0 L 2.5,5.84375 2.5,3.53125 4.28125,2.5 z m 8,0 4,0 L 2.5,10.46875 2.5,8.15625 12.28125,2.5 z m 8,0 4,0 L 2.5,15.09375 2.5,12.78125 20.28125,2.5 z m 8,0 L 32.25,2.5 2.5,19.6875 2.5,17.40625 28.28125,2.5 z m 8,0 1.21875,0 0,1.59375 -35,20.21875 0,-2.28125 L 36.28125,2.5 z M 37.5,6.40625 l 0,2.3125 -35,20.21875 0,-2.28125 35,-20.25 z m 0,4.625 0,2.3125 -35,20.21875 0,-2.3125 35,-20.21875 z m 0,4.59375 0,2.34375 L 3.6875,37.5 2.5,37.5 2.5,35.84375 37.5,15.625 z m 0,4.625 0,2.34375 L 11.6875,37.5 7.65625,37.5 37.5,20.25 z m 0,4.625 0,2.34375 L 19.71875,37.5 15.65625,37.5 37.5,24.875 z m 0,4.625 0,2.3125 -9.84375,5.6875 -4,0 13.84375,-8 z m 0,4.625 0,2.3125 -1.84375,1.0625 -4,0 L 37.5,34.125 z"
       transform="translate(400,572.36218)"
       id="rect3033"/>
  </g>
</svg>
