<?xml version="1.0" encoding="UTF-8" standalone="no"?>
<!-- Created with Inkscape (http://www.inkscape.org/) -->

<svg
   xmlns:dc="http://purl.org/dc/elements/1.1/"
   xmlns:cc="http://creativecommons.org/ns#"
   xmlns:rdf="http://www.w3.org/1999/02/22-rdf-syntax-ns#"
   xmlns:svg="http://www.w3.org/2000/svg"
   xmlns="http://www.w3.org/2000/svg"
   version="1.1"
   id="svg5896">
  <defs
     id="defs5898" />
  <metadata
     id="metadata5901">
    <rdf:RDF>
      <cc:Work
         rdf:about="">
        <dc:format>image/svg+xml</dc:format>
        <dc:type
           rdf:resource="http://purl.org/dc/dcmitype/StillImage" />
        <dc:title></dc:title>
      </cc:Work>
    </rdf:RDF>
  </metadata>
  <path
     d="m 20,0 c -1.425845,0 -2.814866,0.15384725 -4.15625,0.4375 -0.547634,0.11580408 -1.094765,0.27798964 -1.625,0.4375 -0.209336,0.0632763 -0.418625,0.11760769 -0.625,0.1875 -0.357559,0.1205364 -0.714268,0.2351631 -1.0625,0.375 -0.285973,0.1153108 -0.56451,0.2470298 -0.84375,0.375 -0.243431,0.1111666 -0.480665,0.2232376 -0.71875,0.34375 -0.25355,0.1286965 -0.502815,0.2672066 -0.75,0.40625 C 9.9528011,2.7118317 9.6957482,2.870299 9.4375,3.03125 9.2319963,3.1594873 9.0129208,3.2708483 8.8125,3.40625 8.3276186,3.7334794 7.85955,4.1013768 7.40625,4.46875 7.365769,4.5016316 7.321468,4.5293091 7.28125,4.5625 6.9219742,4.8583305 6.5875503,5.1801887 6.25,5.5 5.9403273,5.7937686 5.6341354,6.0933651 5.34375,6.40625 5.2938812,6.4599827 5.2367828,6.5082207 5.1875,6.5625 5.1775704,6.5734357 5.1661556,6.5827921 5.15625,6.59375 4.080096,7.7842292 3.1422765,9.1070012 2.375,10.53125 c -0.2618547,0.486065 -0.5009759,0.988432 -0.71875,1.5 -0.1601444,0.367741 -0.2992177,0.746154 -0.4375,1.125 -0.053108,0.145497 -0.1064477,0.290446 -0.15625,0.4375 -0.30194829,0.89158 -0.54412265,1.806996 -0.71875,2.75 -0.073937,0.399266 -0.13766192,0.811539 -0.1875,1.21875 -0.0409378,0.334489 -0.06953823,0.660617 -0.09375,1 -0.00607,0.08508 -0.02624782,0.164625 -0.03125,0.25 C 0.00821671,19.205624 0,19.601098 0,20 c 0,0.366668 0.01176679,0.731942 0.03125,1.09375 0.0034177,0.06347 0.02719006,0.12438 0.03125,0.1875 0.01614179,0.254475 0.0056782,0.498199 0.03125,0.75 0.0064827,0.06206 0.0241855,0.125632 0.03125,0.1875 0.0407948,0.366935 0.0958754,0.733082 0.15625,1.09375 0.11380506,0.679853 0.28819033,1.345229 0.46875,2 0.0810881,0.294053 0.15598609,0.586543 0.25,0.875 0.012394,0.04086 0.018616,0.08425 0.03125,0.125 0.108628,0.326103 0.2190257,0.650358 0.34375,0.96875 0.2424648,0.618956 0.5119058,1.225384 0.8125,1.8125 0.017231,0.03366 0.044984,0.06023 0.0625,0.09375 0.1377454,0.265379 0.2883755,0.522993 0.4375,0.78125 0.1733683,0.29131 0.3479627,0.591986 0.53125,0.875 0.3630023,0.560513 0.7405497,1.105004 1.15625,1.625 0.1891247,0.236574 0.3942842,0.459879 0.59375,0.6875 0.2467038,0.285566 0.4867731,0.575261 0.75,0.84375 0.4943941,0.504278 1.017369,0.987618 1.5625,1.4375 0.4246884,0.350484 0.8614578,0.683475 1.3125,1 0.1350943,0.09394 0.2687569,0.190585 0.40625,0.28125 0.6473887,0.426896 1.334255,0.805531 2.03125,1.15625 0.371641,0.187005 0.738881,0.37087 1.125,0.53125 0.386415,0.165048 0.789033,0.296538 1.1875,0.4375 0.873754,0.309099 1.762766,0.563686 2.6875,0.75 1.086074,0.218821 2.201715,0.339906 3.34375,0.375 C 19.582775,39.975135 19.790676,40 20,40 c 1.380711,0 2.729299,-0.139832 4.03125,-0.40625 0.543271,-0.111169 1.0675,-0.252 1.59375,-0.40625 0.105114,-0.03077 0.208119,-0.0613 0.3125,-0.09375 0.09485,-0.0295 0.187012,-0.06288 0.28125,-0.09375 0.453755,-0.148625 0.905066,-0.288995 1.34375,-0.46875 0.07382,-0.03025 0.145374,-0.06264 0.21875,-0.09375 0.09472,-0.04006 0.187282,-0.08353 0.28125,-0.125 0.406717,-0.179978 0.795606,-0.387885 1.1875,-0.59375 0.09061,-0.0476 0.191469,-0.07606 0.28125,-0.125 0.167977,-0.09125 0.334974,-0.18537 0.5,-0.28125 0.148522,-0.08659 0.291439,-0.190974 0.4375,-0.28125 0.307695,-0.189616 0.609901,-0.388228 0.90625,-0.59375 0.464293,-0.322464 0.909056,-0.640467 1.34375,-1 0.38007,-0.313661 0.738012,-0.659565 1.09375,-1 0.377531,-0.36129 0.745396,-0.735329 1.09375,-1.125 1.05108,-1.175745 1.966673,-2.474253 2.71875,-3.875 0.0021,-0.004 0.02912,0.004 0.03125,0 0.259894,-0.484842 0.47669,-0.987716 0.6875,-1.5 0.221095,-0.509676 0.414916,-1.031851 0.59375,-1.5625 0.30068,-0.892201 0.545505,-1.806476 0.71875,-2.75 0.07338,-0.399663 0.138257,-0.811154 0.1875,-1.21875 0.03919,-0.32436 0.07028,-0.639798 0.09375,-0.96875 0.0061,-0.08508 0.02625,-0.164625 0.03125,-0.25 C 39.991783,20.794376 40,20.398902 40,20 c 0,-0.388157 -0.0094,-0.773556 -0.03125,-1.15625 -0.01673,-0.293476 -0.0318,-0.587644 -0.0625,-0.875 -0.0075,-0.0737 -0.02297,-0.14529 -0.03125,-0.21875 -0.04019,-0.356456 -0.09757,-0.711971 -0.15625,-1.0625 -0.117189,-0.700069 -0.280835,-1.389085 -0.46875,-2.0625 -0.05238,-0.187715 -0.1,-0.376855 -0.15625,-0.5625 -0.04227,-0.135886 -0.07993,-0.271623 -0.125,-0.40625 -0.103244,-0.317924 -0.222243,-0.627322 -0.34375,-0.9375 -0.247564,-0.631973 -0.535624,-1.245009 -0.84375,-1.84375 -0.147477,-0.286573 -0.308043,-0.565433 -0.46875,-0.84375 -0.0045,-0.0077 0.0045,-0.02354 0,-0.03125 C 37.146571,9.7074703 36.963566,9.4056946 36.78125,9.125 36.417812,8.5654486 36.041003,8.0190504 35.625,7.5 35.565153,7.425328 35.498222,7.355468 35.4375,7.28125 35.068122,6.8297776 34.688801,6.3834889 34.28125,5.96875 33.791707,5.4705733 33.257898,5.0074444 32.71875,4.5625 32.225748,4.1556383 31.717918,3.764835 31.1875,3.40625 31.106443,3.3514892 31.019397,3.3035977 30.9375,3.25 30.300111,2.8328579 29.622624,2.468536 28.9375,2.125 28.553602,1.9325055 28.179783,1.7274424 27.78125,1.5625 27.406656,1.4040599 27.010846,1.2921026 26.625,1.15625 25.748881,0.84777727 24.864695,0.56007735 23.9375,0.375 c -0.01001,-0.001998 -0.02124,0.001977 -0.03125,0 C 23.793085,0.35265927 23.676374,0.33225716 23.5625,0.3125 23.142409,0.23680375 22.71002,0.17401805 22.28125,0.125 21.720632,0.06090865 21.167471,0.04799965 20.59375,0.03125 20.396273,0.02548471 20.198873,0 20,0 z m 0.25,2.5 c 1.164295,0.016513 2.307565,0.1416882 3.40625,0.375 L 3.34375,14.59375 C 3.6998782,13.493573 4.1939238,12.461489 4.75,11.46875 L 20.25,2.5 z M 15.09375,3.1875 8,7.28125 C 9.9887147,5.4040974 12.396294,3.9718816 15.09375,3.1875 z M 26.25,3.65625 c 0.757022,0.2895267 1.485193,0.6438145 2.1875,1.03125 L 2.53125,19.65625 C 2.5472627,18.839084 2.5943944,18.036029 2.71875,17.25 L 26.25,3.65625 z M 30.34375,5.9375 C 30.918358,6.3608478 31.48204,6.7923463 32,7.28125 l -29.03125,16.75 C 2.8109762,23.36172 2.7034082,22.665505 2.625,21.96875 L 30.34375,5.9375 z m 3.0625,2.84375 c 0.427125,0.5096963 0.819828,1.0371173 1.1875,1.59375 L 4.375,27.84375 C 4.0742903,27.245535 3.7941755,26.635027 3.5625,26 L 33.40625,8.78125 z m 2.1875,3.34375 c 0.308345,0.609774 0.607276,1.226821 0.84375,1.875 L 6.5625,31.1875 C 6.1368974,30.677025 5.741116,30.150997 5.375,29.59375 L 35.59375,12.125 z M 37,15.90625 c 0.165598,0.690607 0.294005,1.405256 0.375,2.125 L 9.65625,34.0625 C 9.0697887,33.630419 8.4961372,33.187804 7.96875,32.6875 L 37,15.90625 z m 0.5,4.375 c -0.0134,0.8395 -0.09111,1.661952 -0.21875,2.46875 L 13.71875,36.3125 C 12.953129,36.017642 12.209334,35.676279 11.5,35.28125 l 26,-15 z m -0.84375,5.0625 c -0.351294,1.098011 -0.824682,2.133241 -1.375,3.125 l -15.59375,9 C 18.535392,37.448217 17.399964,37.357904 16.3125,37.125 L 36.65625,25.34375 z m -4.59375,7.3125 c -2.014574,1.920723 -4.469263,3.367015 -7.21875,4.15625 l 7.21875,-4.15625 z"
     id="path2985"/>
</svg>
