<?xml version="1.0" encoding="UTF-8" standalone="no"?>
<!-- Created with Inkscape (http://www.inkscape.org/) -->

<svg
   xmlns:dc="http://purl.org/dc/elements/1.1/"
   xmlns:cc="http://creativecommons.org/ns#"
   xmlns:rdf="http://www.w3.org/1999/02/22-rdf-syntax-ns#"
   xmlns:svg="http://www.w3.org/2000/svg"
   xmlns="http://www.w3.org/2000/svg"
   xmlns:xlink="http://www.w3.org/1999/xlink"
   version="1.1"
   id="triangle-striped">
  <defs
     id="defs3087">
    <linearGradient
       id="linearGradient5312">
      <stop
         id="stop5314"
         style="stop-color:#ff9955;stop-opacity:1"
         offset="0" />
    </linearGradient>
    <pattern
       xlink:href="#pattern5357-4"
       id="pattern5373"
       patternTransform="matrix(2.5,0,0,2.5,584.08979,-183.34034)" />
    <pattern
       patternTransform="matrix(2.5,0,0,2.5,560.27956,-171.1786)"
       id="pattern5357-4"
       xlink:href="#Strips1_1-9" />
    <pattern
       patternUnits="userSpaceOnUse"
       width="2"
       height="1"
       patternTransform="translate(0,0) scale(10,10)"
       id="Strips1_1-9">
      <rect
         x="0"
         y="-0.5"
         width="1"
         height="2"
         id="rect4597-2" />
    </pattern>
  </defs>
  <metadata
     id="metadata3090">
    <rdf:RDF>
      <cc:Work
         rdf:about="">
        <dc:format>image/svg+xml</dc:format>
        <dc:type
           rdf:resource="http://purl.org/dc/dcmitype/StillImage" />
        <dc:title></dc:title>
      </cc:Work>
    </rdf:RDF>
  </metadata>
  <g
     transform="translate(-355,-512.36218)"
     id="layer1">
    <path
       d="M 20,0 19.75,0.53125 18.125,3.75 16.5,7.03125 14.875,10.25 13.25,13.53125 11.625,16.75 10.03125,19.96875 10,19.96875 8.375,23.25 6.78125,26.46875 6.75,26.46875 5.125,29.75 3.53125,32.96875 3.5,32.96875 1.875,36.25 0.28125,39.46875 0.25,39.46875 0,40 l 3.34375,0 4.03125,0 3.96875,0 4.03125,0 3.96875,0 4.03125,0 4,0 3.96875,0 L 40,40 38.0625,36.125 37.15625,34.34375 36.28125,32.5625 35.375,30.75 34.46875,28.96875 33.59375,27.15625 32.6875,25.375 31.78125,23.5625 30.90625,21.78125 30,20 29.09375,18.21875 28.21875,16.4375 27.3125,14.625 26.40625,12.84375 25.5,11.03125 24.625,9.25 23.71875,7.46875 22.84375,5.65625 21.9375,3.875 21.03125,2.0625 20.15625,0.28125 20,0 z m 0.6875,6.90625 0.875,1.8125 -4.40625,2.5625 L 18.78125,8 20.6875,6.90625 z m 1.78125,3.59375 0.875,1.78125 -9.40625,5.40625 1.59375,-3.1875 6.9375,-4 z M 24.25,14.09375 25.15625,15.875 10.6875,24.21875 12.28125,21 24.25,14.09375 z m 1.8125,3.59375 0.875,1.78125 -19.5,11.25 L 9.03125,27.5 26.0625,17.6875 z M 27.84375,21.25 28.75,23.03125 4.1875,37.1875 5.78125,34 27.84375,21.25 z m 1.78125,3.5625 0.90625,1.8125 -18.9375,10.9375 -4.03125,0 22.0625,-12.75 z m 1.8125,3.59375 0.875,1.8125 -12.71875,7.34375 -4.03125,0 15.875,-9.15625 z M 33.21875,32 l 0.90625,1.8125 -6.53125,3.75 -4.03125,0 L 33.21875,32 z M 35,35.59375 l 0.90625,1.78125 -0.34375,0.1875 -3.96875,0 L 35,35.59375 z"
       transform="translate(355,512.36218)"
       id="path3066-9"/>
  </g>
</svg>
